<?xml version="1.0" encoding="UTF-8" standalone="no"?>
<svg
   height="32"
   viewBox="0 0 32 32"
   width="32"
   version="1.1"
   id="svg1"
   sodipodi:docname="next-js.svg"
   inkscape:export-filename="next-js.svg"
   inkscape:export-xdpi="294"
   inkscape:export-ydpi="294"
   xmlns:inkscape="http://www.inkscape.org/namespaces/inkscape"
   xmlns:sodipodi="http://sodipodi.sourceforge.net/DTD/sodipodi-0.dtd"
   xmlns="http://www.w3.org/2000/svg"
   xmlns:svg="http://www.w3.org/2000/svg">
  <defs
     id="defs1" />
  <sodipodi:namedview
     id="namedview1"
     pagecolor="#505050"
     bordercolor="#eeeeee"
     borderopacity="1"
     inkscape:showpageshadow="0"
     inkscape:pageopacity="0"
     inkscape:pagecheckerboard="0"
     inkscape:deskcolor="#d1d1d1" />
  <path
     d="m 23.749,30.005 c -0.119,0.063 -0.109,0.083 0.005,0.025 0.037,-0.015 0.068,-0.036 0.095,-0.061 0,-0.021 0,-0.021 -0.1,0.036 z m 0.24,-0.13 c -0.057,0.047 -0.057,0.047 0.011,0.016 0.036,-0.021 0.068,-0.041 0.068,-0.047 0,-0.027 -0.016,-0.021 -0.079,0.031 z m 0.156,-0.094 c -0.057,0.047 -0.057,0.047 0.011,0.016 0.037,-0.021 0.068,-0.043 0.068,-0.048 0,-0.025 -0.016,-0.02 -0.079,0.032 z m 0.158,-0.093 c -0.057,0.047 -0.057,0.047 0.009,0.015 0.037,-0.02 0.068,-0.041 0.068,-0.047 0,-0.025 -0.016,-0.02 -0.077,0.032 z m 0.213,-0.141 c -0.109,0.073 -0.147,0.12 -0.047,0.068 0.067,-0.041 0.181,-0.131 0.161,-0.131 -0.043,0.016 -0.079,0.043 -0.115,0.063 z M 14.953,0.011 C 14.88,0.016 14.661,0.036 14.469,0.052 9.921,0.464 5.666,2.912 2.969,6.683 1.478,8.75 0.51,11.151 0.145,13.672 0.016,14.552 0,14.812 0,16.005 c 0,1.192 0.016,1.448 0.145,2.328 0.871,6.011 5.147,11.057 10.943,12.927 1.043,0.333 2.136,0.563 3.381,0.704 0.484,0.052 2.577,0.052 3.061,0 2.152,-0.24 3.969,-0.771 5.767,-1.688 0.276,-0.14 0.328,-0.177 0.291,-0.208 -0.88,-1.161 -1.744,-2.323 -2.609,-3.495 L 18.422,23.12 15.219,18.375 c -1.068,-1.588 -2.14,-3.172 -3.229,-4.744 -0.011,0 -0.025,2.109 -0.031,4.681 -0.011,4.505 -0.011,4.688 -0.068,4.792 -0.057,0.125 -0.151,0.229 -0.276,0.287 -0.099,0.047 -0.188,0.057 -0.661,0.057 H 10.413 L 10.272,23.36 c -0.088,-0.057 -0.161,-0.136 -0.208,-0.229 l -0.068,-0.141 0.005,-6.271 0.011,-6.271 0.099,-0.125 c 0.063,-0.077 0.141,-0.14 0.229,-0.187 0.131,-0.063 0.183,-0.073 0.724,-0.073 0.635,0 0.74,0.025 0.907,0.208 1.296,1.932 2.588,3.869 3.859,5.812 2.079,3.152 4.917,7.453 6.312,9.563 l 2.537,3.839 0.125,-0.083 c 1.219,-0.813 2.328,-1.781 3.285,-2.885 2.016,-2.308 3.324,-5.147 3.767,-8.177 0.129,-0.88 0.145,-1.141 0.145,-2.333 0,-1.193 -0.016,-1.448 -0.145,-2.328 C 30.985,7.668 26.709,2.622 20.913,0.751 19.829,0.408 18.714,0.174 17.585,0.054 17.282,0.023 15.214,-0.014 14.954,0.013 Z M 21.5,9.688 c 0.151,0.072 0.265,0.208 0.317,0.364 0.027,0.084 0.032,1.823 0.027,5.74 l -0.011,5.624 -0.989,-1.52 -0.995,-1.521 v -4.083 c 0,-2.647 0.011,-4.131 0.025,-4.204 0.047,-0.167 0.161,-0.307 0.313,-0.395 0.124,-0.063 0.172,-0.068 0.667,-0.068 0.463,0 0.541,0.005 0.645,0.063 z"
     id="path1" />
</svg>
